{
	"asset": {
		"generator": "Blocks 4.0.1RC0 SVR",
		"version": "1.1",
		"copyright": "Unknown"
	},
	"buffers": {
		"model": {
			"byteLength": 74976,
			"type": "arraybuffer",
			"uri": "model.bin"
		}
	},
	"accessors": {
		"accessor_position_m0-PolyPaper17_-12332": {
			"bufferView": "vec3BufferView",
			"byteOffset": 0,
			"byteStride": 12,
			"componentType": 5126,
			"count": 1734,
			"max": [ 0.9500501, 1.111277, 0.9894601 ],
			"min": [ -1.489951, -2.493755, -1.459988 ],
			"type": "VEC3"
		 },
		"accessor_normal_m0-PolyPaper17_-12332": {
			"bufferView": "vec3BufferView",
			"byteOffset": 20808,
			"byteStride": 12,
			"componentType": 5126,
			"count": 1734,
			"max": [ 1, 1, 1 ],
			"min": [ -1, -1, -1 ],
			"type": "VEC3"
		 },
		"accessor_color_m0-PolyPaper17_-12332": {
			"bufferView": "vec4BufferView",
			"byteOffset": 0,
			"byteStride": 16,
			"componentType": 5126,
			"count": 1734,
			"max": [ 1, 1, 1, 1 ],
			"min": [ 0.4745098, 0.3333333, 0.282353, 1 ],
			"type": "VEC4"
		 },
		"accessor_indices_0_m0-PolyPaper17_-12332": {
			"bufferView": "ushortBufferView",
			"byteOffset": 0,
			"byteStride": 0,
			"componentType": 5123,
			"count": 2808,
			"max": [ 1733 ],
			"min": [ 0 ],
			"type": "SCALAR"
		 }
	},
	"bufferViews": {
		"ushortBufferView": {
			"buffer": "model",
			"byteLength": 5616,
			"byteOffset": 0,
			"target": 34963
		},
		"vec3BufferView": {
			"buffer": "model",
			"byteLength": 41616,
			"byteOffset": 5616,
			"target": 34962
		},
		"vec4BufferView": {
			"buffer": "model",
			"byteLength": 27744,
			"byteOffset": 47232,
			"target": 34962
		}
	},
	"meshes": {
		"mesh_m0-PolyPaper17_-12332": {
			"name": "mesh_m0-PolyPaper17_-12332",
			"primitives": [
				{
					"attributes": {
						"POSITION": "accessor_position_m0-PolyPaper17_-12332",
						"NORMAL": "accessor_normal_m0-PolyPaper17_-12332",
						"COLOR": "accessor_color_m0-PolyPaper17_-12332"
					},
					"indices": "accessor_indices_0_m0-PolyPaper17_-12332",
					"material": "material_mat17",
					"mode": 4
				}
			]
		}
	},
	"shaders": {
		"vertex_mat17": {
			"type": 35633,
			"uri": "https://vr.google.com/shaders/w/vs.glsl"
		},
		"fragment_mat17": {
			"type": 35632,
			"uri": "https://vr.google.com/shaders/w/fs.glsl"
		}
	},
	"programs": {
		"program_mat17": {
			"attributes": [
				"a_position",
				"a_normal",
				"a_color"				
			],
			"vertexShader": "vertex_mat17",
			"fragmentShader": "fragment_mat17"
		}
	},
	"techniques": {
		"technique_mat17": {
			"program": "program_mat17",
			"extras": {"gvrss" : "https://vr.google.com/shaders/w/gvrss/paper.json"},
			"parameters": {
				"position": {
					"type": 35665,
					"semantic": "POSITION"
				},
				"normal": {
					"type": 35665,
					"semantic": "NORMAL"
				},
				"color": {
					"type": 35666,
					"semantic": "COLOR"
				},
				"modelViewMatrix": {
					"type": 35676,
					"semantic": "MODELVIEW"
				},
				"projectionMatrix": {
					"type": 35676,
					"semantic": "PROJECTION"
				},
				"normalMatrix": {
					"type": 35675,
					"semantic": "MODELVIEWINVERSETRANSPOSE"
				},
				"color": {
					"type": 35666
				},
				"roughness": {
					"type": 5126
				},
				"metallic": {
					"type": 5126
				},
				"light0Pos": {
					"type": 35666
				},
				"light0Color": {
					"type": 35666
				},
				"light1Pos": {
					"type": 35666
				},
				"light1Color": {
					"type": 35666
				}				
			},
			"attributes": {
				"a_position": "position",
				"a_normal": "normal",
				"a_color": "color"				
			},
			"uniforms": {
				"u_modelViewMatrix": "modelViewMatrix",
				"u_projectionMatrix": "projectionMatrix",
				"u_normalMatrix": "normalMatrix",
				"u_color": "color",
				"u_roughness": "roughness",
				"u_metallic": "metallic",
				"u_light0Pos": "light0Pos",
				"u_light0Color": "light0Color",
				"u_light1Pos": "light1Pos",
				"u_light1Color": "light1Color"				
			},
			"states": {
				"enable": [
					2929,
					2884
				],
				"functions": {
					"cullFace": [1029]
				}
			}
		}
	},
	"materials": {
		"material_mat17": {
			"technique": "technique_mat17",
			"values": {
				"color": [0.2705882, 0.3529412, 0.3921569, 1],
				"roughness": 1,
				"metallic": 0,
				"light0Pos": [-0.02, 4.11, -0.54, 0],
				"light0Color": [1.28, 1.232075, 1.101177, 0],
				"light1Pos": [0.02, -4.11, 0.54, 0],
				"light1Color": [0.2941177, 0.2953672, 0.32, 0]				
			},
			"name": "material_mat17"
		}
	},
	"nodes": {
		"node_MeshObject-668002304-PolyPaper17": {
			"name": "node_MeshObject-668002304-PolyPaper17",
			"meshes": [
				"mesh_m0-PolyPaper17_-12332"
			],
			"matrix": [1, 0, 0, 0, 0, 1, 0, 0, 0, 0, 1, 0, 0, 0, 0, 1]
		}
	},
	"scene": "defaultScene",
	"scenes": {
		"defaultScene": {
			"nodes": [
				"node_MeshObject-668002304-PolyPaper17"
			],
			"extras": {

			}
		}
	}
}